<mxfile host="app.diagrams.net" modified="2024-06-19T02:11:56.830Z" agent="Mozilla/5.0 (X11; Ubuntu; Linux x86_64; rv:126.0) Gecko/20100101 Firefox/126.0" etag="zQm1qq9ASnzyQPuxdeJ6" version="24.5.5" type="device">
  <diagram name="Page-1" id="rV1qF0xN9108TX4vYvCx">
    <mxGraphModel dx="1195" dy="663" grid="1" gridSize="10" guides="1" tooltips="1" connect="1" arrows="1" fold="1" page="1" pageScale="1" pageWidth="850" pageHeight="1100" math="0" shadow="0">
      <root>
        <mxCell id="0" />
        <mxCell id="1" parent="0" />
        <mxCell id="3kGiDY6Ac-QoX5HYYz5T-1" value="libros" style="shape=table;startSize=30;container=1;collapsible=0;childLayout=tableLayout;" vertex="1" parent="1">
          <mxGeometry x="270" y="240" width="510.00000000000273" height="470" as="geometry" />
        </mxCell>
        <mxCell id="3kGiDY6Ac-QoX5HYYz5T-2" value="" style="shape=tableRow;horizontal=0;startSize=0;swimlaneHead=0;swimlaneBody=0;strokeColor=inherit;top=0;left=0;bottom=0;right=0;collapsible=0;dropTarget=0;fillColor=none;points=[[0,0.5],[1,0.5]];portConstraint=eastwest;" vertex="1" parent="3kGiDY6Ac-QoX5HYYz5T-1">
          <mxGeometry y="30" width="510.00000000000273" height="40" as="geometry" />
        </mxCell>
        <mxCell id="3kGiDY6Ac-QoX5HYYz5T-56" value="id_libro" style="shape=partialRectangle;html=1;whiteSpace=wrap;connectable=0;strokeColor=inherit;overflow=hidden;fillColor=none;top=0;left=0;bottom=0;right=0;pointerEvents=1;" vertex="1" parent="3kGiDY6Ac-QoX5HYYz5T-2">
          <mxGeometry width="60" height="40" as="geometry">
            <mxRectangle width="60" height="40" as="alternateBounds" />
          </mxGeometry>
        </mxCell>
        <mxCell id="3kGiDY6Ac-QoX5HYYz5T-3" value="titulo" style="shape=partialRectangle;html=1;whiteSpace=wrap;connectable=0;strokeColor=inherit;overflow=hidden;fillColor=none;top=0;left=0;bottom=0;right=0;pointerEvents=1;" vertex="1" parent="3kGiDY6Ac-QoX5HYYz5T-2">
          <mxGeometry x="60" width="160" height="40" as="geometry">
            <mxRectangle width="160" height="40" as="alternateBounds" />
          </mxGeometry>
        </mxCell>
        <mxCell id="3kGiDY6Ac-QoX5HYYz5T-4" value="autor" style="shape=partialRectangle;html=1;whiteSpace=wrap;connectable=0;strokeColor=inherit;overflow=hidden;fillColor=none;top=0;left=0;bottom=0;right=0;pointerEvents=1;" vertex="1" parent="3kGiDY6Ac-QoX5HYYz5T-2">
          <mxGeometry x="220" width="170" height="40" as="geometry">
            <mxRectangle width="170" height="40" as="alternateBounds" />
          </mxGeometry>
        </mxCell>
        <mxCell id="3kGiDY6Ac-QoX5HYYz5T-5" value="genero" style="shape=partialRectangle;html=1;whiteSpace=wrap;connectable=0;strokeColor=inherit;overflow=hidden;fillColor=none;top=0;left=0;bottom=0;right=0;pointerEvents=1;" vertex="1" parent="3kGiDY6Ac-QoX5HYYz5T-2">
          <mxGeometry x="390" width="120" height="40" as="geometry">
            <mxRectangle width="120" height="40" as="alternateBounds" />
          </mxGeometry>
        </mxCell>
        <mxCell id="3kGiDY6Ac-QoX5HYYz5T-8" value="" style="shape=tableRow;horizontal=0;startSize=0;swimlaneHead=0;swimlaneBody=0;strokeColor=inherit;top=0;left=0;bottom=0;right=0;collapsible=0;dropTarget=0;fillColor=none;points=[[0,0.5],[1,0.5]];portConstraint=eastwest;" vertex="1" parent="3kGiDY6Ac-QoX5HYYz5T-1">
          <mxGeometry y="70" width="510.00000000000273" height="40" as="geometry" />
        </mxCell>
        <mxCell id="3kGiDY6Ac-QoX5HYYz5T-57" value="1" style="shape=partialRectangle;html=1;whiteSpace=wrap;connectable=0;strokeColor=inherit;overflow=hidden;fillColor=none;top=0;left=0;bottom=0;right=0;pointerEvents=1;" vertex="1" parent="3kGiDY6Ac-QoX5HYYz5T-8">
          <mxGeometry width="60" height="40" as="geometry">
            <mxRectangle width="60" height="40" as="alternateBounds" />
          </mxGeometry>
        </mxCell>
        <mxCell id="3kGiDY6Ac-QoX5HYYz5T-9" value="&lt;pre class=&quot;notranslate&quot; lang=&quot;plaintext&quot;&gt;&lt;code&gt;Don Quijote&lt;/code&gt;&lt;/pre&gt;" style="shape=partialRectangle;html=1;whiteSpace=wrap;connectable=0;strokeColor=inherit;overflow=hidden;fillColor=none;top=0;left=0;bottom=0;right=0;pointerEvents=1;" vertex="1" parent="3kGiDY6Ac-QoX5HYYz5T-8">
          <mxGeometry x="60" width="160" height="40" as="geometry">
            <mxRectangle width="160" height="40" as="alternateBounds" />
          </mxGeometry>
        </mxCell>
        <mxCell id="3kGiDY6Ac-QoX5HYYz5T-10" value="&lt;pre class=&quot;notranslate&quot; lang=&quot;plaintext&quot;&gt;&lt;code&gt;Miguel de Cervantes&lt;/code&gt;&lt;/pre&gt;" style="shape=partialRectangle;html=1;whiteSpace=wrap;connectable=0;strokeColor=inherit;overflow=hidden;fillColor=none;top=0;left=0;bottom=0;right=0;pointerEvents=1;" vertex="1" parent="3kGiDY6Ac-QoX5HYYz5T-8">
          <mxGeometry x="220" width="170" height="40" as="geometry">
            <mxRectangle width="170" height="40" as="alternateBounds" />
          </mxGeometry>
        </mxCell>
        <mxCell id="3kGiDY6Ac-QoX5HYYz5T-11" value="&lt;pre class=&quot;notranslate&quot; lang=&quot;plaintext&quot;&gt;&lt;code&gt;Novela&lt;/code&gt;&lt;/pre&gt;" style="shape=partialRectangle;html=1;whiteSpace=wrap;connectable=0;strokeColor=inherit;overflow=hidden;fillColor=none;top=0;left=0;bottom=0;right=0;pointerEvents=1;" vertex="1" parent="3kGiDY6Ac-QoX5HYYz5T-8">
          <mxGeometry x="390" width="120" height="40" as="geometry">
            <mxRectangle width="120" height="40" as="alternateBounds" />
          </mxGeometry>
        </mxCell>
        <mxCell id="3kGiDY6Ac-QoX5HYYz5T-14" value="" style="shape=tableRow;horizontal=0;startSize=0;swimlaneHead=0;swimlaneBody=0;strokeColor=inherit;top=0;left=0;bottom=0;right=0;collapsible=0;dropTarget=0;fillColor=none;points=[[0,0.5],[1,0.5]];portConstraint=eastwest;" vertex="1" parent="3kGiDY6Ac-QoX5HYYz5T-1">
          <mxGeometry y="110" width="510.00000000000273" height="40" as="geometry" />
        </mxCell>
        <mxCell id="3kGiDY6Ac-QoX5HYYz5T-58" value="1" style="shape=partialRectangle;html=1;whiteSpace=wrap;connectable=0;strokeColor=inherit;overflow=hidden;fillColor=none;top=0;left=0;bottom=0;right=0;pointerEvents=1;" vertex="1" parent="3kGiDY6Ac-QoX5HYYz5T-14">
          <mxGeometry width="60" height="40" as="geometry">
            <mxRectangle width="60" height="40" as="alternateBounds" />
          </mxGeometry>
        </mxCell>
        <mxCell id="3kGiDY6Ac-QoX5HYYz5T-15" value="&lt;pre class=&quot;notranslate&quot; lang=&quot;plaintext&quot;&gt;&lt;code&gt;Don Quijote&lt;/code&gt;&lt;/pre&gt;" style="shape=partialRectangle;html=1;whiteSpace=wrap;connectable=0;strokeColor=inherit;overflow=hidden;fillColor=none;top=0;left=0;bottom=0;right=0;pointerEvents=1;" vertex="1" parent="3kGiDY6Ac-QoX5HYYz5T-14">
          <mxGeometry x="60" width="160" height="40" as="geometry">
            <mxRectangle width="160" height="40" as="alternateBounds" />
          </mxGeometry>
        </mxCell>
        <mxCell id="3kGiDY6Ac-QoX5HYYz5T-16" value="&lt;pre class=&quot;notranslate&quot; lang=&quot;plaintext&quot;&gt;&lt;code&gt;Miguel de Cervantes&lt;/code&gt;&lt;/pre&gt;" style="shape=partialRectangle;html=1;whiteSpace=wrap;connectable=0;strokeColor=inherit;overflow=hidden;fillColor=none;top=0;left=0;bottom=0;right=0;pointerEvents=1;" vertex="1" parent="3kGiDY6Ac-QoX5HYYz5T-14">
          <mxGeometry x="220" width="170" height="40" as="geometry">
            <mxRectangle width="170" height="40" as="alternateBounds" />
          </mxGeometry>
        </mxCell>
        <mxCell id="3kGiDY6Ac-QoX5HYYz5T-17" value="&lt;pre class=&quot;notranslate&quot; lang=&quot;plaintext&quot;&gt;&lt;code&gt;Clásico&lt;/code&gt;&lt;/pre&gt;" style="shape=partialRectangle;html=1;whiteSpace=wrap;connectable=0;strokeColor=inherit;overflow=hidden;fillColor=none;top=0;left=0;bottom=0;right=0;pointerEvents=1;" vertex="1" parent="3kGiDY6Ac-QoX5HYYz5T-14">
          <mxGeometry x="390" width="120" height="40" as="geometry">
            <mxRectangle width="120" height="40" as="alternateBounds" />
          </mxGeometry>
        </mxCell>
        <mxCell id="3kGiDY6Ac-QoX5HYYz5T-20" value="" style="shape=tableRow;horizontal=0;startSize=0;swimlaneHead=0;swimlaneBody=0;strokeColor=inherit;top=0;left=0;bottom=0;right=0;collapsible=0;dropTarget=0;fillColor=none;points=[[0,0.5],[1,0.5]];portConstraint=eastwest;" vertex="1" parent="3kGiDY6Ac-QoX5HYYz5T-1">
          <mxGeometry y="150" width="510.00000000000273" height="40" as="geometry" />
        </mxCell>
        <mxCell id="3kGiDY6Ac-QoX5HYYz5T-59" value="2" style="shape=partialRectangle;html=1;whiteSpace=wrap;connectable=0;strokeColor=inherit;overflow=hidden;fillColor=none;top=0;left=0;bottom=0;right=0;pointerEvents=1;" vertex="1" parent="3kGiDY6Ac-QoX5HYYz5T-20">
          <mxGeometry width="60" height="40" as="geometry">
            <mxRectangle width="60" height="40" as="alternateBounds" />
          </mxGeometry>
        </mxCell>
        <mxCell id="3kGiDY6Ac-QoX5HYYz5T-21" value="&lt;pre class=&quot;notranslate&quot; lang=&quot;plaintext&quot;&gt;&lt;code&gt;Cien Años de Soledad&lt;/code&gt;&lt;/pre&gt;" style="shape=partialRectangle;html=1;whiteSpace=wrap;connectable=0;strokeColor=inherit;overflow=hidden;fillColor=none;top=0;left=0;bottom=0;right=0;pointerEvents=1;" vertex="1" parent="3kGiDY6Ac-QoX5HYYz5T-20">
          <mxGeometry x="60" width="160" height="40" as="geometry">
            <mxRectangle width="160" height="40" as="alternateBounds" />
          </mxGeometry>
        </mxCell>
        <mxCell id="3kGiDY6Ac-QoX5HYYz5T-22" value="&lt;pre class=&quot;notranslate&quot; lang=&quot;plaintext&quot;&gt;&lt;code&gt;Gabriel García Márquez&lt;/code&gt;&lt;/pre&gt;" style="shape=partialRectangle;html=1;whiteSpace=wrap;connectable=0;strokeColor=inherit;overflow=hidden;fillColor=none;top=0;left=0;bottom=0;right=0;pointerEvents=1;" vertex="1" parent="3kGiDY6Ac-QoX5HYYz5T-20">
          <mxGeometry x="220" width="170" height="40" as="geometry">
            <mxRectangle width="170" height="40" as="alternateBounds" />
          </mxGeometry>
        </mxCell>
        <mxCell id="3kGiDY6Ac-QoX5HYYz5T-23" value="&lt;pre class=&quot;notranslate&quot; lang=&quot;plaintext&quot;&gt;&lt;code&gt;Realismo Mágico&lt;/code&gt;&lt;/pre&gt;" style="shape=partialRectangle;html=1;whiteSpace=wrap;connectable=0;strokeColor=inherit;overflow=hidden;fillColor=none;top=0;left=0;bottom=0;right=0;pointerEvents=1;" vertex="1" parent="3kGiDY6Ac-QoX5HYYz5T-20">
          <mxGeometry x="390" width="120" height="40" as="geometry">
            <mxRectangle width="120" height="40" as="alternateBounds" />
          </mxGeometry>
        </mxCell>
        <mxCell id="3kGiDY6Ac-QoX5HYYz5T-26" value="" style="shape=tableRow;horizontal=0;startSize=0;swimlaneHead=0;swimlaneBody=0;strokeColor=inherit;top=0;left=0;bottom=0;right=0;collapsible=0;dropTarget=0;fillColor=none;points=[[0,0.5],[1,0.5]];portConstraint=eastwest;" vertex="1" parent="3kGiDY6Ac-QoX5HYYz5T-1">
          <mxGeometry y="190" width="510.00000000000273" height="40" as="geometry" />
        </mxCell>
        <mxCell id="3kGiDY6Ac-QoX5HYYz5T-60" value="2" style="shape=partialRectangle;html=1;whiteSpace=wrap;connectable=0;strokeColor=inherit;overflow=hidden;fillColor=none;top=0;left=0;bottom=0;right=0;pointerEvents=1;" vertex="1" parent="3kGiDY6Ac-QoX5HYYz5T-26">
          <mxGeometry width="60" height="40" as="geometry">
            <mxRectangle width="60" height="40" as="alternateBounds" />
          </mxGeometry>
        </mxCell>
        <mxCell id="3kGiDY6Ac-QoX5HYYz5T-27" value="&lt;pre class=&quot;notranslate&quot; lang=&quot;plaintext&quot;&gt;&lt;code&gt;Cien Años de Soledad&lt;/code&gt;&lt;/pre&gt;" style="shape=partialRectangle;html=1;whiteSpace=wrap;connectable=0;strokeColor=inherit;overflow=hidden;fillColor=none;top=0;left=0;bottom=0;right=0;pointerEvents=1;" vertex="1" parent="3kGiDY6Ac-QoX5HYYz5T-26">
          <mxGeometry x="60" width="160" height="40" as="geometry">
            <mxRectangle width="160" height="40" as="alternateBounds" />
          </mxGeometry>
        </mxCell>
        <mxCell id="3kGiDY6Ac-QoX5HYYz5T-28" value="&lt;pre class=&quot;notranslate&quot; lang=&quot;plaintext&quot;&gt;&lt;code&gt;Gabriel García Márquez&lt;/code&gt;&lt;/pre&gt;" style="shape=partialRectangle;html=1;whiteSpace=wrap;connectable=0;strokeColor=inherit;overflow=hidden;fillColor=none;top=0;left=0;bottom=0;right=0;pointerEvents=1;" vertex="1" parent="3kGiDY6Ac-QoX5HYYz5T-26">
          <mxGeometry x="220" width="170" height="40" as="geometry">
            <mxRectangle width="170" height="40" as="alternateBounds" />
          </mxGeometry>
        </mxCell>
        <mxCell id="3kGiDY6Ac-QoX5HYYz5T-29" value="&lt;pre class=&quot;notranslate&quot; lang=&quot;plaintext&quot;&gt;&lt;code&gt;Novela&lt;/code&gt;&lt;/pre&gt;" style="shape=partialRectangle;html=1;whiteSpace=wrap;connectable=0;strokeColor=inherit;overflow=hidden;fillColor=none;top=0;left=0;bottom=0;right=0;pointerEvents=1;" vertex="1" parent="3kGiDY6Ac-QoX5HYYz5T-26">
          <mxGeometry x="390" width="120" height="40" as="geometry">
            <mxRectangle width="120" height="40" as="alternateBounds" />
          </mxGeometry>
        </mxCell>
        <mxCell id="3kGiDY6Ac-QoX5HYYz5T-32" value="" style="shape=tableRow;horizontal=0;startSize=0;swimlaneHead=0;swimlaneBody=0;strokeColor=inherit;top=0;left=0;bottom=0;right=0;collapsible=0;dropTarget=0;fillColor=none;points=[[0,0.5],[1,0.5]];portConstraint=eastwest;" vertex="1" parent="3kGiDY6Ac-QoX5HYYz5T-1">
          <mxGeometry y="230" width="510.00000000000273" height="40" as="geometry" />
        </mxCell>
        <mxCell id="3kGiDY6Ac-QoX5HYYz5T-61" value="3" style="shape=partialRectangle;html=1;whiteSpace=wrap;connectable=0;strokeColor=inherit;overflow=hidden;fillColor=none;top=0;left=0;bottom=0;right=0;pointerEvents=1;" vertex="1" parent="3kGiDY6Ac-QoX5HYYz5T-32">
          <mxGeometry width="60" height="40" as="geometry">
            <mxRectangle width="60" height="40" as="alternateBounds" />
          </mxGeometry>
        </mxCell>
        <mxCell id="3kGiDY6Ac-QoX5HYYz5T-33" value="&lt;pre class=&quot;notranslate&quot; lang=&quot;plaintext&quot;&gt;&lt;code&gt;La Odisea&lt;/code&gt;&lt;/pre&gt;" style="shape=partialRectangle;html=1;whiteSpace=wrap;connectable=0;strokeColor=inherit;overflow=hidden;fillColor=none;top=0;left=0;bottom=0;right=0;pointerEvents=1;" vertex="1" parent="3kGiDY6Ac-QoX5HYYz5T-32">
          <mxGeometry x="60" width="160" height="40" as="geometry">
            <mxRectangle width="160" height="40" as="alternateBounds" />
          </mxGeometry>
        </mxCell>
        <mxCell id="3kGiDY6Ac-QoX5HYYz5T-34" value="&lt;pre class=&quot;notranslate&quot; lang=&quot;plaintext&quot;&gt;&lt;code&gt;Homero&lt;/code&gt;&lt;/pre&gt;" style="shape=partialRectangle;html=1;whiteSpace=wrap;connectable=0;strokeColor=inherit;overflow=hidden;fillColor=none;top=0;left=0;bottom=0;right=0;pointerEvents=1;" vertex="1" parent="3kGiDY6Ac-QoX5HYYz5T-32">
          <mxGeometry x="220" width="170" height="40" as="geometry">
            <mxRectangle width="170" height="40" as="alternateBounds" />
          </mxGeometry>
        </mxCell>
        <mxCell id="3kGiDY6Ac-QoX5HYYz5T-35" value="&lt;pre class=&quot;notranslate&quot; lang=&quot;plaintext&quot;&gt;&lt;code&gt;Épica&lt;/code&gt;&lt;/pre&gt;" style="shape=partialRectangle;html=1;whiteSpace=wrap;connectable=0;strokeColor=inherit;overflow=hidden;fillColor=none;top=0;left=0;bottom=0;right=0;pointerEvents=1;" vertex="1" parent="3kGiDY6Ac-QoX5HYYz5T-32">
          <mxGeometry x="390" width="120" height="40" as="geometry">
            <mxRectangle width="120" height="40" as="alternateBounds" />
          </mxGeometry>
        </mxCell>
        <mxCell id="3kGiDY6Ac-QoX5HYYz5T-38" value="" style="shape=tableRow;horizontal=0;startSize=0;swimlaneHead=0;swimlaneBody=0;strokeColor=inherit;top=0;left=0;bottom=0;right=0;collapsible=0;dropTarget=0;fillColor=none;points=[[0,0.5],[1,0.5]];portConstraint=eastwest;" vertex="1" parent="3kGiDY6Ac-QoX5HYYz5T-1">
          <mxGeometry y="270" width="510.00000000000273" height="40" as="geometry" />
        </mxCell>
        <mxCell id="3kGiDY6Ac-QoX5HYYz5T-62" value="3" style="shape=partialRectangle;html=1;whiteSpace=wrap;connectable=0;strokeColor=inherit;overflow=hidden;fillColor=none;top=0;left=0;bottom=0;right=0;pointerEvents=1;" vertex="1" parent="3kGiDY6Ac-QoX5HYYz5T-38">
          <mxGeometry width="60" height="40" as="geometry">
            <mxRectangle width="60" height="40" as="alternateBounds" />
          </mxGeometry>
        </mxCell>
        <mxCell id="3kGiDY6Ac-QoX5HYYz5T-39" value="&lt;pre class=&quot;notranslate&quot; lang=&quot;plaintext&quot;&gt;&lt;code&gt;La Odisea&lt;/code&gt;&lt;/pre&gt;" style="shape=partialRectangle;html=1;whiteSpace=wrap;connectable=0;strokeColor=inherit;overflow=hidden;fillColor=none;top=0;left=0;bottom=0;right=0;pointerEvents=1;" vertex="1" parent="3kGiDY6Ac-QoX5HYYz5T-38">
          <mxGeometry x="60" width="160" height="40" as="geometry">
            <mxRectangle width="160" height="40" as="alternateBounds" />
          </mxGeometry>
        </mxCell>
        <mxCell id="3kGiDY6Ac-QoX5HYYz5T-40" value="&lt;pre class=&quot;notranslate&quot; lang=&quot;plaintext&quot;&gt;&lt;code&gt;Homero&lt;/code&gt;&lt;/pre&gt;" style="shape=partialRectangle;html=1;whiteSpace=wrap;connectable=0;strokeColor=inherit;overflow=hidden;fillColor=none;top=0;left=0;bottom=0;right=0;pointerEvents=1;" vertex="1" parent="3kGiDY6Ac-QoX5HYYz5T-38">
          <mxGeometry x="220" width="170" height="40" as="geometry">
            <mxRectangle width="170" height="40" as="alternateBounds" />
          </mxGeometry>
        </mxCell>
        <mxCell id="3kGiDY6Ac-QoX5HYYz5T-41" value="&lt;pre class=&quot;notranslate&quot; lang=&quot;plaintext&quot;&gt;&lt;code&gt;Clásico&lt;/code&gt;&lt;/pre&gt;" style="shape=partialRectangle;html=1;whiteSpace=wrap;connectable=0;strokeColor=inherit;overflow=hidden;fillColor=none;top=0;left=0;bottom=0;right=0;pointerEvents=1;" vertex="1" parent="3kGiDY6Ac-QoX5HYYz5T-38">
          <mxGeometry x="390" width="120" height="40" as="geometry">
            <mxRectangle width="120" height="40" as="alternateBounds" />
          </mxGeometry>
        </mxCell>
        <mxCell id="3kGiDY6Ac-QoX5HYYz5T-44" value="" style="shape=tableRow;horizontal=0;startSize=0;swimlaneHead=0;swimlaneBody=0;strokeColor=inherit;top=0;left=0;bottom=0;right=0;collapsible=0;dropTarget=0;fillColor=none;points=[[0,0.5],[1,0.5]];portConstraint=eastwest;" vertex="1" parent="3kGiDY6Ac-QoX5HYYz5T-1">
          <mxGeometry y="310" width="510.00000000000273" height="40" as="geometry" />
        </mxCell>
        <mxCell id="3kGiDY6Ac-QoX5HYYz5T-63" value="4" style="shape=partialRectangle;html=1;whiteSpace=wrap;connectable=0;strokeColor=inherit;overflow=hidden;fillColor=none;top=0;left=0;bottom=0;right=0;pointerEvents=1;" vertex="1" parent="3kGiDY6Ac-QoX5HYYz5T-44">
          <mxGeometry width="60" height="40" as="geometry">
            <mxRectangle width="60" height="40" as="alternateBounds" />
          </mxGeometry>
        </mxCell>
        <mxCell id="3kGiDY6Ac-QoX5HYYz5T-45" value="&lt;pre class=&quot;notranslate&quot; lang=&quot;plaintext&quot;&gt;&lt;code&gt;Good Omens&lt;/code&gt;&lt;/pre&gt;" style="shape=partialRectangle;html=1;whiteSpace=wrap;connectable=0;strokeColor=inherit;overflow=hidden;fillColor=none;top=0;left=0;bottom=0;right=0;pointerEvents=1;" vertex="1" parent="3kGiDY6Ac-QoX5HYYz5T-44">
          <mxGeometry x="60" width="160" height="40" as="geometry">
            <mxRectangle width="160" height="40" as="alternateBounds" />
          </mxGeometry>
        </mxCell>
        <mxCell id="3kGiDY6Ac-QoX5HYYz5T-46" value="&lt;pre class=&quot;notranslate&quot; lang=&quot;plaintext&quot;&gt;&lt;code&gt;Neil Gaiman&lt;/code&gt;&lt;/pre&gt;" style="shape=partialRectangle;html=1;whiteSpace=wrap;connectable=0;strokeColor=inherit;overflow=hidden;fillColor=none;top=0;left=0;bottom=0;right=0;pointerEvents=1;" vertex="1" parent="3kGiDY6Ac-QoX5HYYz5T-44">
          <mxGeometry x="220" width="170" height="40" as="geometry">
            <mxRectangle width="170" height="40" as="alternateBounds" />
          </mxGeometry>
        </mxCell>
        <mxCell id="3kGiDY6Ac-QoX5HYYz5T-47" value="&lt;pre class=&quot;notranslate&quot; lang=&quot;plaintext&quot;&gt;&lt;code&gt;Fantasía&lt;/code&gt;&lt;/pre&gt;" style="shape=partialRectangle;html=1;whiteSpace=wrap;connectable=0;strokeColor=inherit;overflow=hidden;fillColor=none;top=0;left=0;bottom=0;right=0;pointerEvents=1;" vertex="1" parent="3kGiDY6Ac-QoX5HYYz5T-44">
          <mxGeometry x="390" width="120" height="40" as="geometry">
            <mxRectangle width="120" height="40" as="alternateBounds" />
          </mxGeometry>
        </mxCell>
        <mxCell id="3kGiDY6Ac-QoX5HYYz5T-67" value="" style="shape=tableRow;horizontal=0;startSize=0;swimlaneHead=0;swimlaneBody=0;strokeColor=inherit;top=0;left=0;bottom=0;right=0;collapsible=0;dropTarget=0;fillColor=none;points=[[0,0.5],[1,0.5]];portConstraint=eastwest;" vertex="1" parent="3kGiDY6Ac-QoX5HYYz5T-1">
          <mxGeometry y="350" width="510.00000000000273" height="40" as="geometry" />
        </mxCell>
        <mxCell id="3kGiDY6Ac-QoX5HYYz5T-68" value="4" style="shape=partialRectangle;html=1;whiteSpace=wrap;connectable=0;strokeColor=inherit;overflow=hidden;fillColor=none;top=0;left=0;bottom=0;right=0;pointerEvents=1;" vertex="1" parent="3kGiDY6Ac-QoX5HYYz5T-67">
          <mxGeometry width="60" height="40" as="geometry">
            <mxRectangle width="60" height="40" as="alternateBounds" />
          </mxGeometry>
        </mxCell>
        <mxCell id="3kGiDY6Ac-QoX5HYYz5T-69" value="&lt;pre class=&quot;notranslate&quot; lang=&quot;plaintext&quot;&gt;&lt;code&gt;Good Omens&lt;/code&gt;&lt;/pre&gt;" style="shape=partialRectangle;html=1;whiteSpace=wrap;connectable=0;strokeColor=inherit;overflow=hidden;fillColor=none;top=0;left=0;bottom=0;right=0;pointerEvents=1;" vertex="1" parent="3kGiDY6Ac-QoX5HYYz5T-67">
          <mxGeometry x="60" width="160" height="40" as="geometry">
            <mxRectangle width="160" height="40" as="alternateBounds" />
          </mxGeometry>
        </mxCell>
        <mxCell id="3kGiDY6Ac-QoX5HYYz5T-70" value="&lt;pre class=&quot;notranslate&quot; lang=&quot;plaintext&quot;&gt;&lt;code&gt;Neil Gaiman&lt;/code&gt;&lt;/pre&gt;" style="shape=partialRectangle;html=1;whiteSpace=wrap;connectable=0;strokeColor=inherit;overflow=hidden;fillColor=none;top=0;left=0;bottom=0;right=0;pointerEvents=1;" vertex="1" parent="3kGiDY6Ac-QoX5HYYz5T-67">
          <mxGeometry x="220" width="170" height="40" as="geometry">
            <mxRectangle width="170" height="40" as="alternateBounds" />
          </mxGeometry>
        </mxCell>
        <mxCell id="3kGiDY6Ac-QoX5HYYz5T-71" value="&lt;pre class=&quot;notranslate&quot; lang=&quot;plaintext&quot;&gt;&lt;code&gt;Comedia&lt;/code&gt;&lt;/pre&gt;" style="shape=partialRectangle;html=1;whiteSpace=wrap;connectable=0;strokeColor=inherit;overflow=hidden;fillColor=none;top=0;left=0;bottom=0;right=0;pointerEvents=1;" vertex="1" parent="3kGiDY6Ac-QoX5HYYz5T-67">
          <mxGeometry x="390" width="120" height="40" as="geometry">
            <mxRectangle width="120" height="40" as="alternateBounds" />
          </mxGeometry>
        </mxCell>
        <mxCell id="3kGiDY6Ac-QoX5HYYz5T-129" value="" style="shape=tableRow;horizontal=0;startSize=0;swimlaneHead=0;swimlaneBody=0;strokeColor=inherit;top=0;left=0;bottom=0;right=0;collapsible=0;dropTarget=0;fillColor=none;points=[[0,0.5],[1,0.5]];portConstraint=eastwest;" vertex="1" parent="3kGiDY6Ac-QoX5HYYz5T-1">
          <mxGeometry y="390" width="510.00000000000273" height="40" as="geometry" />
        </mxCell>
        <mxCell id="3kGiDY6Ac-QoX5HYYz5T-130" value="4" style="shape=partialRectangle;html=1;whiteSpace=wrap;connectable=0;strokeColor=inherit;overflow=hidden;fillColor=none;top=0;left=0;bottom=0;right=0;pointerEvents=1;" vertex="1" parent="3kGiDY6Ac-QoX5HYYz5T-129">
          <mxGeometry width="60" height="40" as="geometry">
            <mxRectangle width="60" height="40" as="alternateBounds" />
          </mxGeometry>
        </mxCell>
        <mxCell id="3kGiDY6Ac-QoX5HYYz5T-131" value="&lt;pre class=&quot;notranslate&quot; lang=&quot;plaintext&quot;&gt;&lt;code&gt;Good Omens&lt;/code&gt;&lt;/pre&gt;" style="shape=partialRectangle;html=1;whiteSpace=wrap;connectable=0;strokeColor=inherit;overflow=hidden;fillColor=none;top=0;left=0;bottom=0;right=0;pointerEvents=1;" vertex="1" parent="3kGiDY6Ac-QoX5HYYz5T-129">
          <mxGeometry x="60" width="160" height="40" as="geometry">
            <mxRectangle width="160" height="40" as="alternateBounds" />
          </mxGeometry>
        </mxCell>
        <mxCell id="3kGiDY6Ac-QoX5HYYz5T-132" value="&lt;pre class=&quot;notranslate&quot; lang=&quot;plaintext&quot;&gt;&lt;code&gt;Terry Pratchett&lt;/code&gt;&lt;/pre&gt;" style="shape=partialRectangle;html=1;whiteSpace=wrap;connectable=0;strokeColor=inherit;overflow=hidden;fillColor=none;top=0;left=0;bottom=0;right=0;pointerEvents=1;" vertex="1" parent="3kGiDY6Ac-QoX5HYYz5T-129">
          <mxGeometry x="220" width="170" height="40" as="geometry">
            <mxRectangle width="170" height="40" as="alternateBounds" />
          </mxGeometry>
        </mxCell>
        <mxCell id="3kGiDY6Ac-QoX5HYYz5T-133" value="&lt;pre class=&quot;notranslate&quot; lang=&quot;plaintext&quot;&gt;&lt;code&gt;Fantasía&lt;/code&gt;&lt;/pre&gt;" style="shape=partialRectangle;html=1;whiteSpace=wrap;connectable=0;strokeColor=inherit;overflow=hidden;fillColor=none;top=0;left=0;bottom=0;right=0;pointerEvents=1;" vertex="1" parent="3kGiDY6Ac-QoX5HYYz5T-129">
          <mxGeometry x="390" width="120" height="40" as="geometry">
            <mxRectangle width="120" height="40" as="alternateBounds" />
          </mxGeometry>
        </mxCell>
        <mxCell id="3kGiDY6Ac-QoX5HYYz5T-134" value="" style="shape=tableRow;horizontal=0;startSize=0;swimlaneHead=0;swimlaneBody=0;strokeColor=inherit;top=0;left=0;bottom=0;right=0;collapsible=0;dropTarget=0;fillColor=none;points=[[0,0.5],[1,0.5]];portConstraint=eastwest;" vertex="1" parent="3kGiDY6Ac-QoX5HYYz5T-1">
          <mxGeometry y="430" width="510.00000000000273" height="40" as="geometry" />
        </mxCell>
        <mxCell id="3kGiDY6Ac-QoX5HYYz5T-135" value="4" style="shape=partialRectangle;html=1;whiteSpace=wrap;connectable=0;strokeColor=inherit;overflow=hidden;fillColor=none;top=0;left=0;bottom=0;right=0;pointerEvents=1;" vertex="1" parent="3kGiDY6Ac-QoX5HYYz5T-134">
          <mxGeometry width="60" height="40" as="geometry">
            <mxRectangle width="60" height="40" as="alternateBounds" />
          </mxGeometry>
        </mxCell>
        <mxCell id="3kGiDY6Ac-QoX5HYYz5T-136" value="&lt;pre class=&quot;notranslate&quot; lang=&quot;plaintext&quot;&gt;&lt;code&gt;Good Omens&lt;/code&gt;&lt;/pre&gt;" style="shape=partialRectangle;html=1;whiteSpace=wrap;connectable=0;strokeColor=inherit;overflow=hidden;fillColor=none;top=0;left=0;bottom=0;right=0;pointerEvents=1;" vertex="1" parent="3kGiDY6Ac-QoX5HYYz5T-134">
          <mxGeometry x="60" width="160" height="40" as="geometry">
            <mxRectangle width="160" height="40" as="alternateBounds" />
          </mxGeometry>
        </mxCell>
        <mxCell id="3kGiDY6Ac-QoX5HYYz5T-137" value="&lt;pre class=&quot;notranslate&quot; lang=&quot;plaintext&quot;&gt;&lt;code&gt;Terry Pratchett&lt;/code&gt;&lt;/pre&gt;" style="shape=partialRectangle;html=1;whiteSpace=wrap;connectable=0;strokeColor=inherit;overflow=hidden;fillColor=none;top=0;left=0;bottom=0;right=0;pointerEvents=1;" vertex="1" parent="3kGiDY6Ac-QoX5HYYz5T-134">
          <mxGeometry x="220" width="170" height="40" as="geometry">
            <mxRectangle width="170" height="40" as="alternateBounds" />
          </mxGeometry>
        </mxCell>
        <mxCell id="3kGiDY6Ac-QoX5HYYz5T-138" value="&lt;pre class=&quot;notranslate&quot; lang=&quot;plaintext&quot;&gt;&lt;code&gt;Comedia&lt;/code&gt;&lt;/pre&gt;" style="shape=partialRectangle;html=1;whiteSpace=wrap;connectable=0;strokeColor=inherit;overflow=hidden;fillColor=none;top=0;left=0;bottom=0;right=0;pointerEvents=1;" vertex="1" parent="3kGiDY6Ac-QoX5HYYz5T-134">
          <mxGeometry x="390" width="120" height="40" as="geometry">
            <mxRectangle width="120" height="40" as="alternateBounds" />
          </mxGeometry>
        </mxCell>
      </root>
    </mxGraphModel>
  </diagram>
</mxfile>
